<svg width="18" height="18" viewBox="0 0 18 18" fill="none" xmlns="http://www.w3.org/2000/svg">
<path d="M0 6.0375C0 3.90191 0 2.83411 0.4222 2.02135C0.777983 1.33643 1.33643 0.777983 2.02135 0.4222C2.83411 0 3.90191 0 6.0375 0H11.9625C14.0981 0 15.1659 0 15.9787 0.4222C16.6636 0.777983 17.222 1.33643 17.5778 2.02135C18 2.83411 18 3.90191 18 6.0375V11.9625C18 14.0981 18 15.1659 17.5778 15.9787C17.222 16.6636 16.6636 17.222 15.9787 17.5778C15.1659 18 14.0981 18 11.9625 18H6.0375C3.90191 18 2.83411 18 2.02135 17.5778C1.33643 17.222 0.777983 16.6636 0.4222 15.9787C0 15.1659 0 14.0981 0 11.9625V6.0375Z" fill="url(#paint0_linear_297_1233)"/>
<path d="M6.9375 13.7812C6.57304 13.7812 6.63497 13.6436 6.50927 13.2966L5.4375 9.7693L13.6875 4.875" fill="#C8DAEA"/>
<path d="M6.9375 13.7813C7.21875 13.7813 7.34302 13.6527 7.5 13.5001L9 12.0415L7.12894 10.9132" fill="#A9C9DD"/>
<path d="M7.12874 10.9134L11.6625 14.263C12.1798 14.5484 12.5532 14.4006 12.6821 13.7827L14.5276 5.08612C14.7165 4.3286 14.2388 3.98503 13.7439 4.20973L2.90732 8.38826C2.16763 8.68495 2.17194 9.09763 2.77249 9.28151L5.5534 10.1495L11.9915 6.08775C12.2954 5.90345 12.5744 6.00254 12.3454 6.20573" fill="url(#paint1_linear_297_1233)"/>
<defs>
<linearGradient id="paint0_linear_297_1233" x1="12.0006" y1="3.0006" x2="7.5006" y2="13.5" gradientUnits="userSpaceOnUse">
<stop stop-color="#37AEE2"/>
<stop offset="1" stop-color="#1E96C8"/>
</linearGradient>
<linearGradient id="paint1_linear_297_1233" x1="10.4067" y1="8.62483" x2="12.1672" y2="12.631" gradientUnits="userSpaceOnUse">
<stop stop-color="#EFF7FC"/>
<stop offset="1" stop-color="white"/>
</linearGradient>
</defs>
</svg>
