<svg width="18" height="18" viewBox="0 0 18 18" fill="none" xmlns="http://www.w3.org/2000/svg">
<path fill-rule="evenodd" clip-rule="evenodd" d="M0.4222 2.02135C0 2.83411 0 3.90191 0 6.0375V11.9625C0 14.0981 0 15.1659 0.4222 15.9787C0.777983 16.6636 1.33643 17.222 2.02135 17.5778C2.83411 18 3.90191 18 6.0375 18H11.9625C14.0981 18 15.1659 18 15.9787 17.5778C16.6636 17.222 17.222 16.6636 17.5778 15.9787C18 15.1659 18 14.0981 18 11.9625V6.0375C18 3.90191 18 2.83411 17.5778 2.02135C17.222 1.33643 16.6636 0.777983 15.9787 0.4222C15.1659 0 14.0981 0 11.9625 0H6.0375C3.90191 0 2.83411 0 2.02135 0.4222C1.33643 0.777983 0.777983 1.33643 0.4222 2.02135ZM2.90726 8.38953L13.7441 4.20974C14.239 3.9851 14.7168 4.3287 14.5278 5.0862L12.6824 13.7826C12.5536 14.4006 12.18 14.5485 11.6627 14.2631L8.85136 12.1859L8.79713 12.2386C8.15894 12.8591 7.59694 13.4056 7.50007 13.5003L7.4897 13.5105C7.33784 13.659 7.21245 13.7816 6.93747 13.7816C6.65201 13.7816 6.6282 13.6971 6.57084 13.4937C6.55498 13.4375 6.53656 13.3721 6.50932 13.2969L5.47519 10.1263L2.77245 9.28277C2.17202 9.09882 2.16763 8.68628 2.90726 8.38953ZM11.9913 6.08906L5.89935 9.93254L6.92592 13.0798L7.12903 10.9135L12.3454 6.20701C12.5743 6.00378 12.2955 5.90463 11.9913 6.08906Z" fill="white" fill-opacity="0.5"/>
</svg>
